# xmcd
#
# Track frame offsets:
#	150
#	18335
#	37292
#	57862
#	78485
#	97902
#
# Disc length: 1565 seconds
#
# Revision: 0
# Processed by: cddbd v1.4PL0 Copyright (c) Steve Scherf et al.
# Submitted via: dBpowerAMP V4.0
#
DISCID=43061b06
DTITLE=Next - Rated Next
DYEAR=1998
DGENRE=Slow Jam
TTITLE0=I Still Love You
TTITLE1=I Still Love You (Acapella)
TTITLE2=Penetration
TTITLE3=I Still Love You (Remix)
TTITLE4=I Still Love You (Remix Acapella)
TTITLE5=I Still Love You (Remix Instrumental)
EXTD=I Still Love You [CD Single)
EXTT0=
EXTT1=
EXTT2=
EXTT3=
EXTT4=
EXTT5=
PLAYORDER=
